<svg width="173" height="176" viewBox="0 0 173 176" fill="none" xmlns="http://www.w3.org/2000/svg">
<rect width="173" height="176" fill="#24282A"/>
<rect x="90.5" y="92.5" width="75" height="75" rx="4.5" fill="#CEB02C" stroke="white"/>
<path d="M123.612 117.117L128.483 128.191L133.388 117.117H139.403L131.32 133.011V142H125.663V133.011L117.562 117.117H123.612Z" fill="white"/>
<rect x="6.5" y="92.5" width="75" height="74" rx="4.5" fill="#24282A" stroke="white"/>
<g filter="url(#filter0_d_4113_6870)">
<rect x="6" y="8" width="75" height="76" rx="5" fill="#66A060"/>
<rect x="6.5" y="8.5" width="74" height="75" rx="4.5" stroke="white"/>
</g>
<rect x="90.5" y="8.5" width="75" height="75" rx="4.5" fill="#939B9F" stroke="white"/>
<path d="M37.1685 54.8896L42.1245 33.1172H44.9785L46.1064 35.8174L40.8257 58H37.6982L37.1685 54.8896ZM35.2373 33.1172L39.3901 54.9922L38.6724 58H35.1177L29.7173 33.1172H35.2373ZM49.644 54.8726L53.7456 33.1172H59.2485L53.8481 58H50.3276L49.644 54.8726ZM46.8413 33.1172L51.8657 55.0093L51.2847 58H48.1743L42.8081 35.8003L43.9873 33.1172H46.8413Z" fill="white"/>
<path d="M118.237 33.1172H127.791C129.693 33.1172 131.34 33.402 132.729 33.9717C134.131 34.5413 135.208 35.3844 135.959 36.501C136.711 37.6175 137.087 38.9961 137.087 40.6367C137.087 42.0039 136.865 43.166 136.421 44.123C135.977 45.0801 135.35 45.8719 134.541 46.4985C133.743 47.1252 132.809 47.6322 131.738 48.0195L129.927 49.0107H121.792L121.758 44.687H127.808C128.639 44.687 129.329 44.5389 129.875 44.2427C130.422 43.9465 130.833 43.5306 131.106 42.9951C131.391 42.4482 131.533 41.8102 131.533 41.0811C131.533 40.3291 131.391 39.6797 131.106 39.1328C130.821 38.5859 130.4 38.1701 129.841 37.8853C129.294 37.589 128.611 37.4409 127.791 37.4409H123.809V58H118.237V33.1172ZM132.012 58L126.423 46.9429L132.302 46.9258L137.976 57.7437V58H132.012Z" fill="white"/>
<path d="M42.0815 142H36.6128L36.647 137.693H42.0815C43.3234 137.693 44.3716 137.409 45.2261 136.839C46.0806 136.258 46.73 135.403 47.1743 134.275C47.6187 133.136 47.8408 131.752 47.8408 130.123V128.978C47.8408 127.747 47.7155 126.665 47.4648 125.73C47.2142 124.785 46.8439 123.993 46.354 123.355C45.8641 122.717 45.2546 122.238 44.5254 121.919C43.8076 121.6 42.9816 121.441 42.0474 121.441H36.5103V117.117H42.0474C43.7336 117.117 45.2716 117.402 46.6616 117.972C48.063 118.541 49.2707 119.356 50.2847 120.416C51.3101 121.475 52.1019 122.728 52.6602 124.175C53.2184 125.622 53.4976 127.234 53.4976 129.012V130.123C53.4976 131.889 53.2184 133.501 52.6602 134.959C52.1019 136.406 51.3101 137.659 50.2847 138.719C49.2707 139.767 48.0687 140.576 46.6787 141.146C45.2887 141.715 43.7563 142 42.0815 142ZM39.7744 117.117V142H34.2031V117.117H39.7744Z" fill="white"/>
<defs>
<filter id="filter0_d_4113_6870" x="2" y="8" width="83" height="84" filterUnits="userSpaceOnUse" color-interpolation-filters="sRGB">
<feFlood flood-opacity="0" result="BackgroundImageFix"/>
<feColorMatrix in="SourceAlpha" type="matrix" values="0 0 0 0 0 0 0 0 0 0 0 0 0 0 0 0 0 0 127 0" result="hardAlpha"/>
<feOffset dy="4"/>
<feGaussianBlur stdDeviation="2"/>
<feComposite in2="hardAlpha" operator="out"/>
<feColorMatrix type="matrix" values="0 0 0 0 0 0 0 0 0 0 0 0 0 0 0 0 0 0 0.25 0"/>
<feBlend mode="normal" in2="BackgroundImageFix" result="effect1_dropShadow_4113_6870"/>
<feBlend mode="normal" in="SourceGraphic" in2="effect1_dropShadow_4113_6870" result="shape"/>
</filter>
</defs>
</svg>
